#tb 0: 1/44100
#media_type 0: audio
#codec_id 0: pcm_s16le
#sample_rate 0: 44100
#channel_layout_name 0: stereo
0,          0,          0,     4096,    16384, 0x09c1d927
0,       4096,       4096,     4096,    16384, 0xdecee90f
0,       8192,       8192,     4096,    16384, 0x8df3ea11
0,      12288,      12288,     4096,    16384, 0xb8e9e0e3
0,      16384,      16384,     4096,    16384, 0x6b1ee299
0,      20480,      20480,     4096,    16384, 0x9072daa9
0,      24576,      24576,     4096,    16384, 0xf2c9d99d
0,      28672,      28672,     4096,    16384, 0x4636e2df
0,      32768,      32768,     4096,    16384, 0x3394e117
0,      36864,      36864,     4096,    16384, 0xfb23e905
0,      40960,      40960,     4096,    16384, 0x1f9efbfa
0,      45056,      45056,     4096,    16384, 0xabc0008a
0,      49152,      49152,     4096,    16384, 0xa4720fee
0,      53248,      53248,     4096,    16384, 0xff8fe525
0,      57344,      57344,     4096,    16384, 0x99a8fd9d
0,      61440,      61440,     4096,    16384, 0xcdd6caaf
0,      65536,      65536,     4096,    16384, 0xc7cfb969
0,      69632,      69632,     4096,    16384, 0xd8b1f515
0,      73728,      73728,     4096,    16384, 0xd611e4bb
0,      77824,      77824,     4096,    16384, 0x2aa6c569
0,      81920,      81920,     4096,    16384, 0x7a1ce433
0,      86016,      86016,     4096,    16384, 0x01d019a8
0,      90112,      90112,     4096,    16384, 0xd6466ceb
0,      94208,      94208,     4096,    16384, 0x5e7f22dc
0,      98304,      98304,     4096,    16384, 0x229eb855
0,     102400,     102400,     4096,    16384, 0x0f7ad203
0,     106496,     106496,     4096,    16384, 0x8878e067
0,     110592,     110592,     4096,    16384, 0xdd5157e9
0,     114688,     114688,     4096,    16384, 0xa70bc8a1
0,     118784,     118784,     4096,    16384, 0x994ef825
0,     122880,     122880,     4096,    16384, 0xa2f5194c
0,     126976,     126976,     4096,    16384, 0x6a7fb855
0,     131072,     131072,     4096,    16384, 0xb9b1071f
0,     135168,     135168,     4096,    16384, 0x2c7cc279
0,     139264,     139264,     4096,    16384, 0xad84f02d
0,     143360,     143360,     4096,    16384, 0xdedac986
0,     147456,     147456,     4096,    16384, 0x74ddea72
0,     151552,     151552,     4096,    16384, 0x390dfbd2
0,     155648,     155648,     4096,    16384, 0xedead261
0,     159744,     159744,     4096,    16384, 0x5833dd71
0,     163840,     163840,     4096,    16384, 0xa3c2c2ec
0,     167936,     167936,     4096,    16384, 0xa4ded7ea
0,     172032,     172032,     4096,    16384, 0xf978c2cd
0,     176128,     176128,     4096,    16384, 0xa850a188
0,     180224,     180224,     4096,    16384, 0x281cf11d
0,     184320,     184320,     4096,    16384, 0x68f0bf3b
0,     188416,     188416,     4096,    16384, 0xeccfece3
0,     192512,     192512,     4096,    16384, 0xecc7f295
0,     196608,     196608,     4096,    16384, 0x53a2d3bf
0,     200704,     200704,     4096,    16384, 0x49eff6df
0,     204800,     204800,     4096,    16384, 0x8d83d6d3
0,     208896,     208896,     4096,    16384, 0x6255df23
0,     212992,     212992,     4096,    16384, 0x5960efeb
0,     217088,     217088,     4096,    16384, 0x68f0bf3b
0,     221184,     221184,     4096,    16384, 0xeccfece3
0,     225280,     225280,     4096,    16384, 0xecc7f295
0,     229376,     229376,     4096,    16384, 0x53a2d3bf
0,     233472,     233472,     4096,    16384, 0x49eff6df
0,     237568,     237568,     4096,    16384, 0x8d83d6d3
0,     241664,     241664,     4096,    16384, 0x6255df23
0,     245760,     245760,     4096,    16384, 0x5960efeb
0,     249856,     249856,     4096,    16384, 0x68f0bf3b
0,     253952,     253952,     4096,    16384, 0xeccfece3
0,     258048,     258048,     4096,    16384, 0xecc7f295
0,     262144,     262144,     2456,     9824, 0x3eda0553
